<svg width="20" height="20" viewBox="0 0 20 20" fill="none" xmlns="http://www.w3.org/2000/svg"> <path d="M9.99984 15.8335C10.1647 15.8335 10.3258 15.7846 10.4628 15.6931C10.5999 15.6015 10.7067 15.4713 10.7697 15.3191C10.8328 15.1668 10.8493 14.9992 10.8172 14.8376C10.785 14.6759 10.7056 14.5274 10.5891 14.4109C10.4725 14.2944 10.3241 14.215 10.1624 14.1828C10.0008 14.1507 9.83321 14.1672 9.68093 14.2303C9.52866 14.2933 9.39851 14.4001 9.30695 14.5372C9.21538 14.6742 9.1665 14.8353 9.1665 15.0002C9.1665 15.2212 9.2543 15.4331 9.41058 15.5894C9.56686 15.7457 9.77882 15.8335 9.99984 15.8335ZM14.1665 15.8335C14.3313 15.8335 14.4924 15.7846 14.6295 15.6931C14.7665 15.6015 14.8733 15.4713 14.9364 15.3191C14.9995 15.1668 15.016 14.9992 14.9838 14.8376C14.9517 14.6759 14.8723 14.5274 14.7558 14.4109C14.6392 14.2944 14.4907 14.215 14.3291 14.1828C14.1674 14.1507 13.9999 14.1672 13.8476 14.2303C13.6953 14.2933 13.5652 14.4001 13.4736 14.5372C13.382 14.6742 13.3332 14.8353 13.3332 15.0002C13.3332 15.2212 13.421 15.4331 13.5772 15.5894C13.7335 15.7457 13.9455 15.8335 14.1665 15.8335ZM14.1665 12.5002C14.3313 12.5002 14.4924 12.4513 14.6295 12.3597C14.7665 12.2682 14.8733 12.138 14.9364 11.9857C14.9995 11.8335 15.016 11.6659 14.9838 11.5043C14.9517 11.3426 14.8723 11.1941 14.7558 11.0776C14.6392 10.961 14.4907 10.8817 14.3291 10.8495C14.1674 10.8174 13.9999 10.8339 13.8476 10.8969C13.6953 10.96 13.5652 11.0668 13.4736 11.2039C13.382 11.3409 13.3332 11.502 13.3332 11.6668C13.3332 11.8878 13.421 12.0998 13.5772 12.2561C13.7335 12.4124 13.9455 12.5002 14.1665 12.5002ZM9.99984 12.5002C10.1647 12.5002 10.3258 12.4513 10.4628 12.3597C10.5999 12.2682 10.7067 12.138 10.7697 11.9857C10.8328 11.8335 10.8493 11.6659 10.8172 11.5043C10.785 11.3426 10.7056 11.1941 10.5891 11.0776C10.4725 10.961 10.3241 10.8817 10.1624 10.8495C10.0008 10.8174 9.83321 10.8339 9.68093 10.8969C9.52866 10.96 9.39851 11.0668 9.30695 11.2039C9.21538 11.3409 9.1665 11.502 9.1665 11.6668C9.1665 11.8878 9.2543 12.0998 9.41058 12.2561C9.56686 12.4124 9.77882 12.5002 9.99984 12.5002ZM15.8332 2.50016H14.9998V1.66683C14.9998 1.44582 14.912 1.23385 14.7558 1.07757C14.5995 0.921293 14.3875 0.833496 14.1665 0.833496C13.9455 0.833496 13.7335 0.921293 13.5772 1.07757C13.421 1.23385 13.3332 1.44582 13.3332 1.66683V2.50016H6.6665V1.66683C6.6665 1.44582 6.57871 1.23385 6.42243 1.07757C6.26615 0.921293 6.05418 0.833496 5.83317 0.833496C5.61216 0.833496 5.4002 0.921293 5.24392 1.07757C5.08764 1.23385 4.99984 1.44582 4.99984 1.66683V2.50016H4.1665C3.50346 2.50016 2.86758 2.76355 2.39874 3.2324C1.9299 3.70124 1.6665 4.33712 1.6665 5.00016V16.6668C1.6665 17.3299 1.9299 17.9658 2.39874 18.4346C2.86758 18.9034 3.50346 19.1668 4.1665 19.1668H15.8332C16.4962 19.1668 17.1321 18.9034 17.6009 18.4346C18.0698 17.9658 18.3332 17.3299 18.3332 16.6668V5.00016C18.3332 4.33712 18.0698 3.70124 17.6009 3.2324C17.1321 2.76355 16.4962 2.50016 15.8332 2.50016ZM16.6665 16.6668C16.6665 16.8878 16.5787 17.0998 16.4224 17.2561C16.2661 17.4124 16.0542 17.5002 15.8332 17.5002H4.1665C3.94549 17.5002 3.73353 17.4124 3.57725 17.2561C3.42097 17.0998 3.33317 16.8878 3.33317 16.6668V9.16683H16.6665V16.6668ZM16.6665 7.50016H3.33317V5.00016C3.33317 4.77915 3.42097 4.56719 3.57725 4.41091C3.73353 4.25463 3.94549 4.16683 4.1665 4.16683H4.99984V5.00016C4.99984 5.22118 5.08764 5.43314 5.24392 5.58942C5.4002 5.7457 5.61216 5.8335 5.83317 5.8335C6.05418 5.8335 6.26615 5.7457 6.42243 5.58942C6.57871 5.43314 6.6665 5.22118 6.6665 5.00016V4.16683H13.3332V5.00016C13.3332 5.22118 13.421 5.43314 13.5772 5.58942C13.7335 5.7457 13.9455 5.8335 14.1665 5.8335C14.3875 5.8335 14.5995 5.7457 14.7558 5.58942C14.912 5.43314 14.9998 5.22118 14.9998 5.00016V4.16683H15.8332C16.0542 4.16683 16.2661 4.25463 16.4224 4.41091C16.5787 4.56719 16.6665 4.77915 16.6665 5.00016V7.50016ZM5.83317 12.5002C5.99799 12.5002 6.1591 12.4513 6.29615 12.3597C6.43319 12.2682 6.54 12.138 6.60307 11.9857C6.66614 11.8335 6.68265 11.6659 6.65049 11.5043C6.61834 11.3426 6.53897 11.1941 6.42243 11.0776C6.30588 10.961 6.1574 10.8817 5.99575 10.8495C5.8341 10.8174 5.66654 10.8339 5.51427 10.8969C5.362 10.96 5.23185 11.0668 5.14028 11.2039C5.04871 11.3409 4.99984 11.502 4.99984 11.6668C4.99984 11.8878 5.08764 12.0998 5.24392 12.2561C5.4002 12.4124 5.61216 12.5002 5.83317 12.5002ZM5.83317 15.8335C5.99799 15.8335 6.1591 15.7846 6.29615 15.6931C6.43319 15.6015 6.54 15.4713 6.60307 15.3191C6.66614 15.1668 6.68265 14.9992 6.65049 14.8376C6.61834 14.6759 6.53897 14.5274 6.42243 14.4109C6.30588 14.2944 6.1574 14.215 5.99575 14.1828C5.8341 14.1507 5.66654 14.1672 5.51427 14.2303C5.362 14.2933 5.23185 14.4001 5.14028 14.5372C5.04871 14.6742 4.99984 14.8353 4.99984 15.0002C4.99984 15.2212 5.08764 15.4331 5.24392 15.5894C5.4002 15.7457 5.61216 15.8335 5.83317 15.8335Z" fill="#322C39"/></svg>