<svg width="20" height="20" fill="none" xmlns="http://www.w3.org/2000/svg"><g clip-path="url(#a)"><path d="M19.99 10.187c0-.82-.068-1.417-.215-2.037H10.2v3.698h5.621c-.113.92-.725 2.303-2.085 3.233l-.02.124 3.029 2.292.21.02c1.926-1.738 3.037-4.296 3.037-7.33Z" fill="#4285F4"/><path d="M10.2 19.931c2.753 0 5.065-.886 6.753-2.414l-3.218-2.436c-.861.587-2.017.997-3.536.997a6.127 6.127 0 0 1-5.802-4.141l-.12.01-3.148 2.38-.041.112c1.677 3.255 5.122 5.492 9.111 5.492Z" fill="#34A853"/><path d="M4.397 11.937a6.008 6.008 0 0 1-.34-1.971c0-.687.125-1.351.329-1.971l-.006-.132-3.188-2.42-.104.05A9.79 9.79 0 0 0 0 9.965c0 1.605.397 3.122 1.088 4.473l3.309-2.502Z" fill="#FBBC05"/><path d="M10.2 3.853c1.914 0 3.206.809 3.943 1.484l2.878-2.746C15.253.985 12.953 0 10.2 0 6.21 0 2.765 2.237 1.088 5.492l3.298 2.503a6.152 6.152 0 0 1 5.813-4.142Z" fill="#EB4335"/></g><defs><clipPath id="a"><path fill="#fff" d="M0 0h20v20H0z"/></clipPath></defs></svg>