<svg width="20" height="20" fill="none" xmlns="http://www.w3.org/2000/svg"><path d="M12.56 1.667H7.449c-4.67 0-5.782 1.11-5.782 5.772v5.113c0 4.67 1.103 5.781 5.773 5.781h5.113c4.67 0 5.781-1.102 5.781-5.772V7.448c0-4.67-1.102-5.781-5.772-5.781Zm2.561 11.892h-1.215c-.46 0-.599-.373-1.424-1.198-.72-.694-1.024-.781-1.206-.781-.252 0-.321.07-.321.417v1.093c0 .296-.096.47-.868.47a4.743 4.743 0 0 1-3.707-2.223 9.689 9.689 0 0 1-1.918-4.028c0-.182.07-.347.416-.347h1.216c.312 0 .425.139.546.46.59 1.736 1.598 3.247 2.006 3.247.156 0 .225-.07.225-.46V8.42c-.052-.816-.486-.885-.486-1.18a.3.3 0 0 1 .313-.278h1.91c.26 0 .347.13.347.443v2.413c0 .26.113.347.19.347.157 0 .278-.087.565-.373a10 10 0 0 0 1.493-2.483.523.523 0 0 1 .53-.347h1.215c.364 0 .442.182.364.443-.442.99-.989 1.93-1.632 2.803-.13.2-.182.304 0 .539.122.182.547.538.834.876.416.416.762.897 1.024 1.424.104.338-.07.512-.417.512Z" fill="#07F"/></svg>